solid 
 facet normal  9.981756e-01  6.037850e-02  0.000000e+00
   outer loop
     vertex  5.261357e-02  6.388444e-03  3.000000e-02
     vertex  5.300000e-02 -1.298126e-17  3.000000e-02
     vertex  5.300000e-02 -1.298126e-17 -2.000000e-02
   endloop
 endfacet
 facet normal  9.981756e-01  6.037850e-02  0.000000e+00
   outer loop
     vertex  5.261357e-02  6.388444e-03  3.000000e-02
     vertex  5.300000e-02 -1.298126e-17 -2.000000e-02
     vertex  5.261357e-02  6.388444e-03 -2.000000e-02
   endloop
 endfacet
 facet normal  9.836199e-01  1.802550e-01  0.000000e+00
   outer loop
     vertex  5.145992e-02  1.268373e-02  3.000000e-02
     vertex  5.261357e-02  6.388444e-03  3.000000e-02
     vertex  5.261357e-02  6.388444e-03 -2.000000e-02
   endloop
 endfacet
 facet normal  9.836199e-01  1.802550e-01  0.000000e+00
   outer loop
     vertex  5.145992e-02  1.268373e-02  3.000000e-02
     vertex  5.261357e-02  6.388444e-03 -2.000000e-02
     vertex  5.145992e-02  1.268373e-02 -2.000000e-02
   endloop
 endfacet
 facet normal  9.547209e-01  2.975031e-01  0.000000e+00
   outer loop
     vertex  4.955586e-02  1.879406e-02  3.000000e-02
     vertex  5.145992e-02  1.268373e-02  3.000000e-02
     vertex  5.145992e-02  1.268373e-02 -2.000000e-02
   endloop
 endfacet
 facet normal  9.547209e-01  2.975031e-01  0.000000e+00
   outer loop
     vertex  4.955586e-02  1.879406e-02  3.000000e-02
     vertex  5.145992e-02  1.268373e-02 -2.000000e-02
     vertex  4.955586e-02  1.879406e-02 -2.000000e-02
   endloop
 endfacet
 facet normal  9.118998e-01  4.104128e-01  0.000000e+00
   outer loop
     vertex  4.692917e-02  2.463033e-02  3.000000e-02
     vertex  4.955586e-02  1.879406e-02  3.000000e-02
     vertex  4.955586e-02  1.879406e-02 -2.000000e-02
   endloop
 endfacet
 facet normal  9.118998e-01  4.104128e-01  0.000000e+00
   outer loop
     vertex  4.692917e-02  2.463033e-02  3.000000e-02
     vertex  4.955586e-02  1.879406e-02 -2.000000e-02
     vertex  4.692917e-02  2.463033e-02 -2.000000e-02
   endloop
 endfacet
 facet normal  8.557813e-01  5.173378e-01  0.000000e+00
   outer loop
     vertex  4.361814e-02  3.010743e-02  3.000000e-02
     vertex  4.692917e-02  2.463033e-02  3.000000e-02
     vertex  4.692917e-02  2.463033e-02 -2.000000e-02
   endloop
 endfacet
 facet normal  8.557813e-01  5.173378e-01  0.000000e+00
   outer loop
     vertex  4.361814e-02  3.010743e-02  3.000000e-02
     vertex  4.692917e-02  2.463033e-02 -2.000000e-02
     vertex  4.361814e-02  3.010743e-02 -2.000000e-02
   endloop
 endfacet
 facet normal  7.871835e-01  6.167189e-01  0.000000e+00
   outer loop
     vertex  3.967107e-02  3.514550e-02  3.000000e-02
     vertex  4.361814e-02  3.010743e-02  3.000000e-02
     vertex  4.361814e-02  3.010743e-02 -2.000000e-02
   endloop
 endfacet
 facet normal  7.871835e-01  6.167189e-01  0.000000e+00
   outer loop
     vertex  3.967107e-02  3.514550e-02  3.000000e-02
     vertex  4.361814e-02  3.010743e-02 -2.000000e-02
     vertex  3.967107e-02  3.514550e-02 -2.000000e-02
   endloop
 endfacet
 facet normal  7.071068e-01  7.071068e-01  0.000000e+00
   outer loop
     vertex  3.514550e-02  3.967107e-02  3.000000e-02
     vertex  3.967107e-02  3.514550e-02  3.000000e-02
     vertex  3.967107e-02  3.514550e-02 -2.000000e-02
   endloop
 endfacet
 facet normal  7.071068e-01  7.071068e-01  0.000000e+00
   outer loop
     vertex  3.514550e-02  3.967107e-02  3.000000e-02
     vertex  3.967107e-02  3.514550e-02 -2.000000e-02
     vertex  3.514550e-02  3.967107e-02 -2.000000e-02
   endloop
 endfacet
 facet normal  6.167189e-01  7.871835e-01  0.000000e+00
   outer loop
     vertex  3.010743e-02  4.361814e-02  3.000000e-02
     vertex  3.514550e-02  3.967107e-02  3.000000e-02
     vertex  3.514550e-02  3.967107e-02 -2.000000e-02
   endloop
 endfacet
 facet normal  6.167189e-01  7.871835e-01  0.000000e+00
   outer loop
     vertex  3.010743e-02  4.361814e-02  3.000000e-02
     vertex  3.514550e-02  3.967107e-02 -2.000000e-02
     vertex  3.010743e-02  4.361814e-02 -2.000000e-02
   endloop
 endfacet
 facet normal  5.173378e-01  8.557813e-01  0.000000e+00
   outer loop
     vertex  2.463033e-02  4.692917e-02  3.000000e-02
     vertex  3.010743e-02  4.361814e-02  3.000000e-02
     vertex  3.010743e-02  4.361814e-02 -2.000000e-02
   endloop
 endfacet
 facet normal  5.173378e-01  8.557813e-01  0.000000e+00
   outer loop
     vertex  2.463033e-02  4.692917e-02  3.000000e-02
     vertex  3.010743e-02  4.361814e-02 -2.000000e-02
     vertex  2.463033e-02  4.692917e-02 -2.000000e-02
   endloop
 endfacet
 facet normal  4.104128e-01  9.118998e-01  0.000000e+00
   outer loop
     vertex  1.879406e-02  4.955586e-02  3.000000e-02
     vertex  2.463033e-02  4.692917e-02  3.000000e-02
     vertex  2.463033e-02  4.692917e-02 -2.000000e-02
   endloop
 endfacet
 facet normal  4.104128e-01  9.118998e-01  0.000000e+00
   outer loop
     vertex  1.879406e-02  4.955586e-02  3.000000e-02
     vertex  2.463033e-02  4.692917e-02 -2.000000e-02
     vertex  1.879406e-02  4.955586e-02 -2.000000e-02
   endloop
 endfacet
 facet normal  2.975031e-01  9.547209e-01  0.000000e+00
   outer loop
     vertex  1.268373e-02  5.145992e-02  3.000000e-02
     vertex  1.879406e-02  4.955586e-02  3.000000e-02
     vertex  1.879406e-02  4.955586e-02 -2.000000e-02
   endloop
 endfacet
 facet normal  2.975031e-01  9.547209e-01  0.000000e+00
   outer loop
     vertex  1.268373e-02  5.145992e-02  3.000000e-02
     vertex  1.879406e-02  4.955586e-02 -2.000000e-02
     vertex  1.268373e-02  5.145992e-02 -2.000000e-02
   endloop
 endfacet
 facet normal  1.802550e-01  9.836199e-01  0.000000e+00
   outer loop
     vertex  6.388444e-03  5.261357e-02  3.000000e-02
     vertex  1.268373e-02  5.145992e-02  3.000000e-02
     vertex  1.268373e-02  5.145992e-02 -2.000000e-02
   endloop
 endfacet
 facet normal  1.802550e-01  9.836199e-01  0.000000e+00
   outer loop
     vertex  6.388444e-03  5.261357e-02  3.000000e-02
     vertex  1.268373e-02  5.145992e-02 -2.000000e-02
     vertex  6.388444e-03  5.261357e-02 -2.000000e-02
   endloop
 endfacet
 facet normal  6.037850e-02  9.981756e-01  0.000000e+00
   outer loop
     vertex  2.678204e-17  5.300000e-02  3.000000e-02
     vertex  6.388444e-03  5.261357e-02  3.000000e-02
     vertex  6.388444e-03  5.261357e-02 -2.000000e-02
   endloop
 endfacet
 facet normal  6.037850e-02  9.981756e-01  0.000000e+00
   outer loop
     vertex  2.678204e-17  5.300000e-02  3.000000e-02
     vertex  6.388444e-03  5.261357e-02 -2.000000e-02
     vertex  2.678204e-17  5.300000e-02 -2.000000e-02
   endloop
 endfacet
 facet normal -6.037850e-02  9.981756e-01  0.000000e+00
   outer loop
     vertex -6.388444e-03  5.261357e-02  3.000000e-02
     vertex  2.678204e-17  5.300000e-02 -2.000000e-02
     vertex -6.388444e-03  5.261357e-02 -2.000000e-02
   endloop
 endfacet
 facet normal -6.037850e-02  9.981756e-01  0.000000e+00
   outer loop
     vertex -6.388444e-03  5.261357e-02  3.000000e-02
     vertex  2.678204e-17  5.300000e-02  3.000000e-02
     vertex  2.678204e-17  5.300000e-02 -2.000000e-02
   endloop
 endfacet
 facet normal -1.802550e-01  9.836199e-01  0.000000e+00
   outer loop
     vertex -1.268373e-02  5.145992e-02  3.000000e-02
     vertex -6.388444e-03  5.261357e-02 -2.000000e-02
     vertex -1.268373e-02  5.145992e-02 -2.000000e-02
   endloop
 endfacet
 facet normal -1.802550e-01  9.836199e-01  0.000000e+00
   outer loop
     vertex -1.268373e-02  5.145992e-02  3.000000e-02
     vertex -6.388444e-03  5.261357e-02  3.000000e-02
     vertex -6.388444e-03  5.261357e-02 -2.000000e-02
   endloop
 endfacet
 facet normal -2.975031e-01  9.547209e-01  0.000000e+00
   outer loop
     vertex -1.879406e-02  4.955586e-02  3.000000e-02
     vertex -1.268373e-02  5.145992e-02 -2.000000e-02
     vertex -1.879406e-02  4.955586e-02 -2.000000e-02
   endloop
 endfacet
 facet normal -2.975031e-01  9.547209e-01  0.000000e+00
   outer loop
     vertex -1.879406e-02  4.955586e-02  3.000000e-02
     vertex -1.268373e-02  5.145992e-02  3.000000e-02
     vertex -1.268373e-02  5.145992e-02 -2.000000e-02
   endloop
 endfacet
 facet normal -4.104128e-01  9.118998e-01  0.000000e+00
   outer loop
     vertex -2.463033e-02  4.692917e-02  3.000000e-02
     vertex -1.879406e-02  4.955586e-02 -2.000000e-02
     vertex -2.463033e-02  4.692917e-02 -2.000000e-02
   endloop
 endfacet
 facet normal -4.104128e-01  9.118998e-01  0.000000e+00
   outer loop
     vertex -2.463033e-02  4.692917e-02  3.000000e-02
     vertex -1.879406e-02  4.955586e-02  3.000000e-02
     vertex -1.879406e-02  4.955586e-02 -2.000000e-02
   endloop
 endfacet
 facet normal -5.173378e-01  8.557813e-01  0.000000e+00
   outer loop
     vertex -3.010743e-02  4.361814e-02  3.000000e-02
     vertex -2.463033e-02  4.692917e-02 -2.000000e-02
     vertex -3.010743e-02  4.361814e-02 -2.000000e-02
   endloop
 endfacet
 facet normal -5.173378e-01  8.557813e-01  0.000000e+00
   outer loop
     vertex -3.010743e-02  4.361814e-02  3.000000e-02
     vertex -2.463033e-02  4.692917e-02  3.000000e-02
     vertex -2.463033e-02  4.692917e-02 -2.000000e-02
   endloop
 endfacet
 facet normal -6.167189e-01  7.871835e-01  0.000000e+00
   outer loop
     vertex -3.514550e-02  3.967107e-02  3.000000e-02
     vertex -3.010743e-02  4.361814e-02 -2.000000e-02
     vertex -3.514550e-02  3.967107e-02 -2.000000e-02
   endloop
 endfacet
 facet normal -6.167189e-01  7.871835e-01  0.000000e+00
   outer loop
     vertex -3.514550e-02  3.967107e-02  3.000000e-02
     vertex -3.010743e-02  4.361814e-02  3.000000e-02
     vertex -3.010743e-02  4.361814e-02 -2.000000e-02
   endloop
 endfacet
 facet normal -7.071068e-01  7.071068e-01  0.000000e+00
   outer loop
     vertex -3.967107e-02  3.514550e-02  3.000000e-02
     vertex -3.514550e-02  3.967107e-02 -2.000000e-02
     vertex -3.967107e-02  3.514550e-02 -2.000000e-02
   endloop
 endfacet
 facet normal -7.071068e-01  7.071068e-01  0.000000e+00
   outer loop
     vertex -3.967107e-02  3.514550e-02  3.000000e-02
     vertex -3.514550e-02  3.967107e-02  3.000000e-02
     vertex -3.514550e-02  3.967107e-02 -2.000000e-02
   endloop
 endfacet
 facet normal -7.871835e-01  6.167189e-01  0.000000e+00
   outer loop
     vertex -4.361814e-02  3.010743e-02  3.000000e-02
     vertex -3.967107e-02  3.514550e-02 -2.000000e-02
     vertex -4.361814e-02  3.010743e-02 -2.000000e-02
   endloop
 endfacet
 facet normal -7.871835e-01  6.167189e-01  0.000000e+00
   outer loop
     vertex -4.361814e-02  3.010743e-02  3.000000e-02
     vertex -3.967107e-02  3.514550e-02  3.000000e-02
     vertex -3.967107e-02  3.514550e-02 -2.000000e-02
   endloop
 endfacet
 facet normal -8.557813e-01  5.173378e-01  0.000000e+00
   outer loop
     vertex -4.692917e-02  2.463033e-02  3.000000e-02
     vertex -4.361814e-02  3.010743e-02 -2.000000e-02
     vertex -4.692917e-02  2.463033e-02 -2.000000e-02
   endloop
 endfacet
 facet normal -8.557813e-01  5.173378e-01  0.000000e+00
   outer loop
     vertex -4.692917e-02  2.463033e-02  3.000000e-02
     vertex -4.361814e-02  3.010743e-02  3.000000e-02
     vertex -4.361814e-02  3.010743e-02 -2.000000e-02
   endloop
 endfacet
 facet normal -9.118998e-01  4.104128e-01  0.000000e+00
   outer loop
     vertex -4.955586e-02  1.879406e-02  3.000000e-02
     vertex -4.692917e-02  2.463033e-02 -2.000000e-02
     vertex -4.955586e-02  1.879406e-02 -2.000000e-02
   endloop
 endfacet
 facet normal -9.118998e-01  4.104128e-01  0.000000e+00
   outer loop
     vertex -4.955586e-02  1.879406e-02  3.000000e-02
     vertex -4.692917e-02  2.463033e-02  3.000000e-02
     vertex -4.692917e-02  2.463033e-02 -2.000000e-02
   endloop
 endfacet
 facet normal -9.547209e-01  2.975031e-01  0.000000e+00
   outer loop
     vertex -5.145992e-02  1.268373e-02  3.000000e-02
     vertex -4.955586e-02  1.879406e-02  3.000000e-02
     vertex -4.955586e-02  1.879406e-02 -2.000000e-02
   endloop
 endfacet
 facet normal -9.547209e-01  2.975031e-01  0.000000e+00
   outer loop
     vertex -5.145992e-02  1.268373e-02  3.000000e-02
     vertex -4.955586e-02  1.879406e-02 -2.000000e-02
     vertex -5.145992e-02  1.268373e-02 -2.000000e-02
   endloop
 endfacet
 facet normal -9.836199e-01  1.802550e-01  0.000000e+00
   outer loop
     vertex -5.261357e-02  6.388444e-03  3.000000e-02
     vertex -5.145992e-02  1.268373e-02  3.000000e-02
     vertex -5.145992e-02  1.268373e-02 -2.000000e-02
   endloop
 endfacet
 facet normal -9.836199e-01  1.802550e-01  0.000000e+00
   outer loop
     vertex -5.261357e-02  6.388444e-03  3.000000e-02
     vertex -5.145992e-02  1.268373e-02 -2.000000e-02
     vertex -5.261357e-02  6.388444e-03 -2.000000e-02
   endloop
 endfacet
 facet normal -9.981756e-01  6.037850e-02  0.000000e+00
   outer loop
     vertex -5.300000e-02  1.006375e-16  3.000000e-02
     vertex -5.261357e-02  6.388444e-03  3.000000e-02
     vertex -5.261357e-02  6.388444e-03 -2.000000e-02
   endloop
 endfacet
 facet normal -9.981756e-01  6.037850e-02  0.000000e+00
   outer loop
     vertex -5.300000e-02  1.006375e-16  3.000000e-02
     vertex -5.261357e-02  6.388444e-03 -2.000000e-02
     vertex -5.300000e-02  1.006375e-16 -2.000000e-02
   endloop
 endfacet
 facet normal -9.981756e-01 -6.037850e-02  0.000000e+00
   outer loop
     vertex -5.261357e-02 -6.388444e-03  3.000000e-02
     vertex -5.300000e-02  1.006375e-16  3.000000e-02
     vertex -5.300000e-02  1.006375e-16 -2.000000e-02
   endloop
 endfacet
 facet normal -9.981756e-01 -6.037850e-02 -0.000000e+00
   outer loop
     vertex -5.261357e-02 -6.388444e-03  3.000000e-02
     vertex -5.300000e-02  1.006375e-16 -2.000000e-02
     vertex -5.261357e-02 -6.388444e-03 -2.000000e-02
   endloop
 endfacet
 facet normal -9.836199e-01 -1.802550e-01  0.000000e+00
   outer loop
     vertex -5.145992e-02 -1.268373e-02  3.000000e-02
     vertex -5.261357e-02 -6.388444e-03  3.000000e-02
     vertex -5.261357e-02 -6.388444e-03 -2.000000e-02
   endloop
 endfacet
 facet normal -9.836199e-01 -1.802550e-01 -0.000000e+00
   outer loop
     vertex -5.145992e-02 -1.268373e-02  3.000000e-02
     vertex -5.261357e-02 -6.388444e-03 -2.000000e-02
     vertex -5.145992e-02 -1.268373e-02 -2.000000e-02
   endloop
 endfacet
 facet normal -9.547209e-01 -2.975031e-01  0.000000e+00
   outer loop
     vertex -4.955586e-02 -1.879406e-02  3.000000e-02
     vertex -5.145992e-02 -1.268373e-02  3.000000e-02
     vertex -5.145992e-02 -1.268373e-02 -2.000000e-02
   endloop
 endfacet
 facet normal -9.547209e-01 -2.975031e-01 -0.000000e+00
   outer loop
     vertex -4.955586e-02 -1.879406e-02  3.000000e-02
     vertex -5.145992e-02 -1.268373e-02 -2.000000e-02
     vertex -4.955586e-02 -1.879406e-02 -2.000000e-02
   endloop
 endfacet
 facet normal -9.118998e-01 -4.104128e-01  0.000000e+00
   outer loop
     vertex -4.692917e-02 -2.463033e-02  3.000000e-02
     vertex -4.955586e-02 -1.879406e-02  3.000000e-02
     vertex -4.955586e-02 -1.879406e-02 -2.000000e-02
   endloop
 endfacet
 facet normal -9.118998e-01 -4.104128e-01 -0.000000e+00
   outer loop
     vertex -4.692917e-02 -2.463033e-02  3.000000e-02
     vertex -4.955586e-02 -1.879406e-02 -2.000000e-02
     vertex -4.692917e-02 -2.463033e-02 -2.000000e-02
   endloop
 endfacet
 facet normal -8.557813e-01 -5.173378e-01  0.000000e+00
   outer loop
     vertex -4.361814e-02 -3.010743e-02  3.000000e-02
     vertex -4.692917e-02 -2.463033e-02  3.000000e-02
     vertex -4.692917e-02 -2.463033e-02 -2.000000e-02
   endloop
 endfacet
 facet normal -8.557813e-01 -5.173378e-01 -0.000000e+00
   outer loop
     vertex -4.361814e-02 -3.010743e-02  3.000000e-02
     vertex -4.692917e-02 -2.463033e-02 -2.000000e-02
     vertex -4.361814e-02 -3.010743e-02 -2.000000e-02
   endloop
 endfacet
 facet normal -7.871835e-01 -6.167189e-01  0.000000e+00
   outer loop
     vertex -3.967107e-02 -3.514550e-02  3.000000e-02
     vertex -4.361814e-02 -3.010743e-02  3.000000e-02
     vertex -4.361814e-02 -3.010743e-02 -2.000000e-02
   endloop
 endfacet
 facet normal -7.871835e-01 -6.167189e-01 -0.000000e+00
   outer loop
     vertex -3.967107e-02 -3.514550e-02  3.000000e-02
     vertex -4.361814e-02 -3.010743e-02 -2.000000e-02
     vertex -3.967107e-02 -3.514550e-02 -2.000000e-02
   endloop
 endfacet
 facet normal -7.071068e-01 -7.071068e-01  0.000000e+00
   outer loop
     vertex -3.514550e-02 -3.967107e-02  3.000000e-02
     vertex -3.967107e-02 -3.514550e-02  3.000000e-02
     vertex -3.967107e-02 -3.514550e-02 -2.000000e-02
   endloop
 endfacet
 facet normal -7.071068e-01 -7.071068e-01 -0.000000e+00
   outer loop
     vertex -3.514550e-02 -3.967107e-02  3.000000e-02
     vertex -3.967107e-02 -3.514550e-02 -2.000000e-02
     vertex -3.514550e-02 -3.967107e-02 -2.000000e-02
   endloop
 endfacet
 facet normal -6.167189e-01 -7.871835e-01  0.000000e+00
   outer loop
     vertex -3.010743e-02 -4.361814e-02  3.000000e-02
     vertex -3.514550e-02 -3.967107e-02  3.000000e-02
     vertex -3.514550e-02 -3.967107e-02 -2.000000e-02
   endloop
 endfacet
 facet normal -6.167189e-01 -7.871835e-01 -0.000000e+00
   outer loop
     vertex -3.010743e-02 -4.361814e-02  3.000000e-02
     vertex -3.514550e-02 -3.967107e-02 -2.000000e-02
     vertex -3.010743e-02 -4.361814e-02 -2.000000e-02
   endloop
 endfacet
 facet normal -5.173378e-01 -8.557813e-01  0.000000e+00
   outer loop
     vertex -2.463033e-02 -4.692917e-02  3.000000e-02
     vertex -3.010743e-02 -4.361814e-02  3.000000e-02
     vertex -3.010743e-02 -4.361814e-02 -2.000000e-02
   endloop
 endfacet
 facet normal -5.173378e-01 -8.557813e-01 -0.000000e+00
   outer loop
     vertex -2.463033e-02 -4.692917e-02  3.000000e-02
     vertex -3.010743e-02 -4.361814e-02 -2.000000e-02
     vertex -2.463033e-02 -4.692917e-02 -2.000000e-02
   endloop
 endfacet
 facet normal -4.104128e-01 -9.118998e-01  0.000000e+00
   outer loop
     vertex -1.879406e-02 -4.955586e-02  3.000000e-02
     vertex -2.463033e-02 -4.692917e-02  3.000000e-02
     vertex -2.463033e-02 -4.692917e-02 -2.000000e-02
   endloop
 endfacet
 facet normal -4.104128e-01 -9.118998e-01 -0.000000e+00
   outer loop
     vertex -1.879406e-02 -4.955586e-02  3.000000e-02
     vertex -2.463033e-02 -4.692917e-02 -2.000000e-02
     vertex -1.879406e-02 -4.955586e-02 -2.000000e-02
   endloop
 endfacet
 facet normal -2.975031e-01 -9.547209e-01  0.000000e+00
   outer loop
     vertex -1.268373e-02 -5.145992e-02  3.000000e-02
     vertex -1.879406e-02 -4.955586e-02  3.000000e-02
     vertex -1.879406e-02 -4.955586e-02 -2.000000e-02
   endloop
 endfacet
 facet normal -2.975031e-01 -9.547209e-01 -0.000000e+00
   outer loop
     vertex -1.268373e-02 -5.145992e-02  3.000000e-02
     vertex -1.879406e-02 -4.955586e-02 -2.000000e-02
     vertex -1.268373e-02 -5.145992e-02 -2.000000e-02
   endloop
 endfacet
 facet normal -1.802550e-01 -9.836199e-01  0.000000e+00
   outer loop
     vertex -6.388444e-03 -5.261357e-02  3.000000e-02
     vertex -1.268373e-02 -5.145992e-02  3.000000e-02
     vertex -1.268373e-02 -5.145992e-02 -2.000000e-02
   endloop
 endfacet
 facet normal -1.802550e-01 -9.836199e-01 -0.000000e+00
   outer loop
     vertex -6.388444e-03 -5.261357e-02  3.000000e-02
     vertex -1.268373e-02 -5.145992e-02 -2.000000e-02
     vertex -6.388444e-03 -5.261357e-02 -2.000000e-02
   endloop
 endfacet
 facet normal -6.037850e-02 -9.981756e-01  0.000000e+00
   outer loop
     vertex -5.680940e-17 -5.300000e-02  3.000000e-02
     vertex -6.388444e-03 -5.261357e-02  3.000000e-02
     vertex -6.388444e-03 -5.261357e-02 -2.000000e-02
   endloop
 endfacet
 facet normal -6.037850e-02 -9.981756e-01 -0.000000e+00
   outer loop
     vertex -5.680940e-17 -5.300000e-02  3.000000e-02
     vertex -6.388444e-03 -5.261357e-02 -2.000000e-02
     vertex -5.680940e-17 -5.300000e-02 -2.000000e-02
   endloop
 endfacet
 facet normal  6.037850e-02 -9.981756e-01  0.000000e+00
   outer loop
     vertex  6.388444e-03 -5.261357e-02  3.000000e-02
     vertex -5.680940e-17 -5.300000e-02  3.000000e-02
     vertex -5.680940e-17 -5.300000e-02 -2.000000e-02
   endloop
 endfacet
 facet normal  6.037850e-02 -9.981756e-01  0.000000e+00
   outer loop
     vertex  6.388444e-03 -5.261357e-02  3.000000e-02
     vertex -5.680940e-17 -5.300000e-02 -2.000000e-02
     vertex  6.388444e-03 -5.261357e-02 -2.000000e-02
   endloop
 endfacet
 facet normal  1.802550e-01 -9.836199e-01  0.000000e+00
   outer loop
     vertex  1.268373e-02 -5.145992e-02  3.000000e-02
     vertex  6.388444e-03 -5.261357e-02  3.000000e-02
     vertex  6.388444e-03 -5.261357e-02 -2.000000e-02
   endloop
 endfacet
 facet normal  1.802550e-01 -9.836199e-01  0.000000e+00
   outer loop
     vertex  1.268373e-02 -5.145992e-02  3.000000e-02
     vertex  6.388444e-03 -5.261357e-02 -2.000000e-02
     vertex  1.268373e-02 -5.145992e-02 -2.000000e-02
   endloop
 endfacet
 facet normal  2.975031e-01 -9.547209e-01  0.000000e+00
   outer loop
     vertex  1.879406e-02 -4.955586e-02  3.000000e-02
     vertex  1.268373e-02 -5.145992e-02  3.000000e-02
     vertex  1.268373e-02 -5.145992e-02 -2.000000e-02
   endloop
 endfacet
 facet normal  2.975031e-01 -9.547209e-01  0.000000e+00
   outer loop
     vertex  1.879406e-02 -4.955586e-02  3.000000e-02
     vertex  1.268373e-02 -5.145992e-02 -2.000000e-02
     vertex  1.879406e-02 -4.955586e-02 -2.000000e-02
   endloop
 endfacet
 facet normal  4.104128e-01 -9.118998e-01  0.000000e+00
   outer loop
     vertex  2.463033e-02 -4.692917e-02  3.000000e-02
     vertex  1.879406e-02 -4.955586e-02  3.000000e-02
     vertex  1.879406e-02 -4.955586e-02 -2.000000e-02
   endloop
 endfacet
 facet normal  4.104128e-01 -9.118998e-01  0.000000e+00
   outer loop
     vertex  2.463033e-02 -4.692917e-02  3.000000e-02
     vertex  1.879406e-02 -4.955586e-02 -2.000000e-02
     vertex  2.463033e-02 -4.692917e-02 -2.000000e-02
   endloop
 endfacet
 facet normal  5.173378e-01 -8.557813e-01  0.000000e+00
   outer loop
     vertex  3.010743e-02 -4.361814e-02  3.000000e-02
     vertex  2.463033e-02 -4.692917e-02  3.000000e-02
     vertex  2.463033e-02 -4.692917e-02 -2.000000e-02
   endloop
 endfacet
 facet normal  5.173378e-01 -8.557813e-01  0.000000e+00
   outer loop
     vertex  3.010743e-02 -4.361814e-02  3.000000e-02
     vertex  2.463033e-02 -4.692917e-02 -2.000000e-02
     vertex  3.010743e-02 -4.361814e-02 -2.000000e-02
   endloop
 endfacet
 facet normal  6.167189e-01 -7.871835e-01  0.000000e+00
   outer loop
     vertex  3.514550e-02 -3.967107e-02  3.000000e-02
     vertex  3.010743e-02 -4.361814e-02  3.000000e-02
     vertex  3.010743e-02 -4.361814e-02 -2.000000e-02
   endloop
 endfacet
 facet normal  6.167189e-01 -7.871835e-01  0.000000e+00
   outer loop
     vertex  3.514550e-02 -3.967107e-02  3.000000e-02
     vertex  3.010743e-02 -4.361814e-02 -2.000000e-02
     vertex  3.514550e-02 -3.967107e-02 -2.000000e-02
   endloop
 endfacet
 facet normal  7.071068e-01 -7.071068e-01  0.000000e+00
   outer loop
     vertex  3.967107e-02 -3.514550e-02  3.000000e-02
     vertex  3.514550e-02 -3.967107e-02  3.000000e-02
     vertex  3.514550e-02 -3.967107e-02 -2.000000e-02
   endloop
 endfacet
 facet normal  7.071068e-01 -7.071068e-01  0.000000e+00
   outer loop
     vertex  3.967107e-02 -3.514550e-02  3.000000e-02
     vertex  3.514550e-02 -3.967107e-02 -2.000000e-02
     vertex  3.967107e-02 -3.514550e-02 -2.000000e-02
   endloop
 endfacet
 facet normal  7.871835e-01 -6.167189e-01  0.000000e+00
   outer loop
     vertex  4.361814e-02 -3.010743e-02  3.000000e-02
     vertex  3.967107e-02 -3.514550e-02  3.000000e-02
     vertex  3.967107e-02 -3.514550e-02 -2.000000e-02
   endloop
 endfacet
 facet normal  7.871835e-01 -6.167189e-01  0.000000e+00
   outer loop
     vertex  4.361814e-02 -3.010743e-02  3.000000e-02
     vertex  3.967107e-02 -3.514550e-02 -2.000000e-02
     vertex  4.361814e-02 -3.010743e-02 -2.000000e-02
   endloop
 endfacet
 facet normal  8.557813e-01 -5.173378e-01  0.000000e+00
   outer loop
     vertex  4.692917e-02 -2.463033e-02  3.000000e-02
     vertex  4.361814e-02 -3.010743e-02 -2.000000e-02
     vertex  4.692917e-02 -2.463033e-02 -2.000000e-02
   endloop
 endfacet
 facet normal  8.557813e-01 -5.173378e-01  0.000000e+00
   outer loop
     vertex  4.692917e-02 -2.463033e-02  3.000000e-02
     vertex  4.361814e-02 -3.010743e-02  3.000000e-02
     vertex  4.361814e-02 -3.010743e-02 -2.000000e-02
   endloop
 endfacet
 facet normal  9.118998e-01 -4.104128e-01  0.000000e+00
   outer loop
     vertex  4.955586e-02 -1.879406e-02  3.000000e-02
     vertex  4.692917e-02 -2.463033e-02 -2.000000e-02
     vertex  4.955586e-02 -1.879406e-02 -2.000000e-02
   endloop
 endfacet
 facet normal  9.118998e-01 -4.104128e-01  0.000000e+00
   outer loop
     vertex  4.955586e-02 -1.879406e-02  3.000000e-02
     vertex  4.692917e-02 -2.463033e-02  3.000000e-02
     vertex  4.692917e-02 -2.463033e-02 -2.000000e-02
   endloop
 endfacet
 facet normal  9.547209e-01 -2.975031e-01  0.000000e+00
   outer loop
     vertex  5.145992e-02 -1.268373e-02  3.000000e-02
     vertex  4.955586e-02 -1.879406e-02 -2.000000e-02
     vertex  5.145992e-02 -1.268373e-02 -2.000000e-02
   endloop
 endfacet
 facet normal  9.547209e-01 -2.975031e-01  0.000000e+00
   outer loop
     vertex  5.145992e-02 -1.268373e-02  3.000000e-02
     vertex  4.955586e-02 -1.879406e-02  3.000000e-02
     vertex  4.955586e-02 -1.879406e-02 -2.000000e-02
   endloop
 endfacet
 facet normal  9.836199e-01 -1.802550e-01  0.000000e+00
   outer loop
     vertex  5.261357e-02 -6.388444e-03  3.000000e-02
     vertex  5.145992e-02 -1.268373e-02 -2.000000e-02
     vertex  5.261357e-02 -6.388444e-03 -2.000000e-02
   endloop
 endfacet
 facet normal  9.836199e-01 -1.802550e-01  0.000000e+00
   outer loop
     vertex  5.261357e-02 -6.388444e-03  3.000000e-02
     vertex  5.145992e-02 -1.268373e-02  3.000000e-02
     vertex  5.145992e-02 -1.268373e-02 -2.000000e-02
   endloop
 endfacet
 facet normal  9.981756e-01 -6.037850e-02  0.000000e+00
   outer loop
     vertex  5.300000e-02 -1.298126e-17  3.000000e-02
     vertex  5.261357e-02 -6.388444e-03 -2.000000e-02
     vertex  5.300000e-02 -1.298126e-17 -2.000000e-02
   endloop
 endfacet
 facet normal  9.981756e-01 -6.037850e-02  0.000000e+00
   outer loop
     vertex  5.300000e-02 -1.298126e-17  3.000000e-02
     vertex  5.261357e-02 -6.388444e-03  3.000000e-02
     vertex  5.261357e-02 -6.388444e-03 -2.000000e-02
   endloop
 endfacet
 facet normal  0.000000e+00  0.000000e+00  1.000000e+00
   outer loop
     vertex  3.967107e-02  3.514550e-02  3.000000e-02
     vertex  5.300000e-02 -1.298126e-17  3.000000e-02
     vertex  5.261357e-02  6.388444e-03  3.000000e-02
   endloop
 endfacet
 facet normal  0.000000e+00  0.000000e+00  1.000000e+00
   outer loop
     vertex  3.967107e-02  3.514550e-02  3.000000e-02
     vertex  5.261357e-02  6.388444e-03  3.000000e-02
     vertex  5.145992e-02  1.268373e-02  3.000000e-02
   endloop
 endfacet
 facet normal  0.000000e+00  0.000000e+00  1.000000e+00
   outer loop
     vertex  3.967107e-02  3.514550e-02  3.000000e-02
     vertex  5.145992e-02  1.268373e-02  3.000000e-02
     vertex  4.955586e-02  1.879406e-02  3.000000e-02
   endloop
 endfacet
 facet normal  0.000000e+00  0.000000e+00  1.000000e+00
   outer loop
     vertex  3.967107e-02  3.514550e-02  3.000000e-02
     vertex  4.955586e-02  1.879406e-02  3.000000e-02
     vertex  4.692917e-02  2.463033e-02  3.000000e-02
   endloop
 endfacet
 facet normal  0.000000e+00  0.000000e+00  1.000000e+00
   outer loop
     vertex  3.967107e-02  3.514550e-02  3.000000e-02
     vertex  4.692917e-02  2.463033e-02  3.000000e-02
     vertex  4.361814e-02  3.010743e-02  3.000000e-02
   endloop
 endfacet
 facet normal  0.000000e+00  0.000000e+00  1.000000e+00
   outer loop
     vertex  3.967107e-02  3.514550e-02  3.000000e-02
     vertex  3.514550e-02  3.967107e-02  3.000000e-02
     vertex  3.010743e-02  4.361814e-02  3.000000e-02
   endloop
 endfacet
 facet normal  0.000000e+00  0.000000e+00  1.000000e+00
   outer loop
     vertex  3.967107e-02  3.514550e-02  3.000000e-02
     vertex  3.010743e-02  4.361814e-02  3.000000e-02
     vertex  2.463033e-02  4.692917e-02  3.000000e-02
   endloop
 endfacet
 facet normal  0.000000e+00  0.000000e+00  1.000000e+00
   outer loop
     vertex  3.967107e-02  3.514550e-02  3.000000e-02
     vertex  2.463033e-02  4.692917e-02  3.000000e-02
     vertex  1.879406e-02  4.955586e-02  3.000000e-02
   endloop
 endfacet
 facet normal  0.000000e+00  0.000000e+00  1.000000e+00
   outer loop
     vertex  3.967107e-02  3.514550e-02  3.000000e-02
     vertex  1.879406e-02  4.955586e-02  3.000000e-02
     vertex  1.268373e-02  5.145992e-02  3.000000e-02
   endloop
 endfacet
 facet normal  0.000000e+00  0.000000e+00  1.000000e+00
   outer loop
     vertex  3.967107e-02  3.514550e-02  3.000000e-02
     vertex  1.268373e-02  5.145992e-02  3.000000e-02
     vertex  6.388444e-03  5.261357e-02  3.000000e-02
   endloop
 endfacet
 facet normal  0.000000e+00  0.000000e+00  1.000000e+00
   outer loop
     vertex  3.967107e-02  3.514550e-02  3.000000e-02
     vertex  6.388444e-03  5.261357e-02  3.000000e-02
     vertex  2.678204e-17  5.300000e-02  3.000000e-02
   endloop
 endfacet
 facet normal  0.000000e+00  0.000000e+00  1.000000e+00
   outer loop
     vertex  3.967107e-02  3.514550e-02  3.000000e-02
     vertex  2.678204e-17  5.300000e-02  3.000000e-02
     vertex -6.388444e-03  5.261357e-02  3.000000e-02
   endloop
 endfacet
 facet normal  0.000000e+00  0.000000e+00  1.000000e+00
   outer loop
     vertex  3.967107e-02  3.514550e-02  3.000000e-02
     vertex -6.388444e-03  5.261357e-02  3.000000e-02
     vertex -1.268373e-02  5.145992e-02  3.000000e-02
   endloop
 endfacet
 facet normal  0.000000e+00  0.000000e+00  1.000000e+00
   outer loop
     vertex  3.967107e-02  3.514550e-02  3.000000e-02
     vertex -1.268373e-02  5.145992e-02  3.000000e-02
     vertex -1.879406e-02  4.955586e-02  3.000000e-02
   endloop
 endfacet
 facet normal  0.000000e+00  0.000000e+00  1.000000e+00
   outer loop
     vertex  3.967107e-02  3.514550e-02  3.000000e-02
     vertex -1.879406e-02  4.955586e-02  3.000000e-02
     vertex -2.463033e-02  4.692917e-02  3.000000e-02
   endloop
 endfacet
 facet normal  0.000000e+00  0.000000e+00  1.000000e+00
   outer loop
     vertex  3.967107e-02  3.514550e-02  3.000000e-02
     vertex -2.463033e-02  4.692917e-02  3.000000e-02
     vertex -3.010743e-02  4.361814e-02  3.000000e-02
   endloop
 endfacet
 facet normal  0.000000e+00  0.000000e+00  1.000000e+00
   outer loop
     vertex  3.967107e-02  3.514550e-02  3.000000e-02
     vertex -3.010743e-02  4.361814e-02  3.000000e-02
     vertex -3.514550e-02  3.967107e-02  3.000000e-02
   endloop
 endfacet
 facet normal  0.000000e+00  0.000000e+00  1.000000e+00
   outer loop
     vertex  3.967107e-02  3.514550e-02  3.000000e-02
     vertex -3.514550e-02  3.967107e-02  3.000000e-02
     vertex -3.967107e-02  3.514550e-02  3.000000e-02
   endloop
 endfacet
 facet normal  0.000000e+00  0.000000e+00  1.000000e+00
   outer loop
     vertex  3.967107e-02  3.514550e-02  3.000000e-02
     vertex -3.967107e-02  3.514550e-02  3.000000e-02
     vertex -4.361814e-02  3.010743e-02  3.000000e-02
   endloop
 endfacet
 facet normal  0.000000e+00  0.000000e+00  1.000000e+00
   outer loop
     vertex  3.967107e-02  3.514550e-02  3.000000e-02
     vertex -4.361814e-02  3.010743e-02  3.000000e-02
     vertex -4.692917e-02  2.463033e-02  3.000000e-02
   endloop
 endfacet
 facet normal  0.000000e+00  0.000000e+00  1.000000e+00
   outer loop
     vertex  3.967107e-02  3.514550e-02  3.000000e-02
     vertex -4.692917e-02  2.463033e-02  3.000000e-02
     vertex -4.955586e-02  1.879406e-02  3.000000e-02
   endloop
 endfacet
 facet normal  0.000000e+00  0.000000e+00  1.000000e+00
   outer loop
     vertex  3.967107e-02  3.514550e-02  3.000000e-02
     vertex -4.955586e-02  1.879406e-02  3.000000e-02
     vertex -5.145992e-02  1.268373e-02  3.000000e-02
   endloop
 endfacet
 facet normal  0.000000e+00  0.000000e+00  1.000000e+00
   outer loop
     vertex  3.967107e-02  3.514550e-02  3.000000e-02
     vertex -5.145992e-02  1.268373e-02  3.000000e-02
     vertex -5.261357e-02  6.388444e-03  3.000000e-02
   endloop
 endfacet
 facet normal  0.000000e+00  0.000000e+00  1.000000e+00
   outer loop
     vertex  3.967107e-02  3.514550e-02  3.000000e-02
     vertex -5.261357e-02  6.388444e-03  3.000000e-02
     vertex -5.300000e-02  1.006375e-16  3.000000e-02
   endloop
 endfacet
 facet normal  0.000000e+00  0.000000e+00  1.000000e+00
   outer loop
     vertex  3.967107e-02  3.514550e-02  3.000000e-02
     vertex -5.300000e-02  1.006375e-16  3.000000e-02
     vertex -5.261357e-02 -6.388444e-03  3.000000e-02
   endloop
 endfacet
 facet normal  0.000000e+00  0.000000e+00  1.000000e+00
   outer loop
     vertex  3.967107e-02  3.514550e-02  3.000000e-02
     vertex -5.261357e-02 -6.388444e-03  3.000000e-02
     vertex -5.145992e-02 -1.268373e-02  3.000000e-02
   endloop
 endfacet
 facet normal  0.000000e+00  0.000000e+00  1.000000e+00
   outer loop
     vertex  3.967107e-02  3.514550e-02  3.000000e-02
     vertex -5.145992e-02 -1.268373e-02  3.000000e-02
     vertex -4.955586e-02 -1.879406e-02  3.000000e-02
   endloop
 endfacet
 facet normal  0.000000e+00  0.000000e+00  1.000000e+00
   outer loop
     vertex  3.967107e-02  3.514550e-02  3.000000e-02
     vertex -4.955586e-02 -1.879406e-02  3.000000e-02
     vertex -4.692917e-02 -2.463033e-02  3.000000e-02
   endloop
 endfacet
 facet normal  0.000000e+00  0.000000e+00  1.000000e+00
   outer loop
     vertex  3.967107e-02  3.514550e-02  3.000000e-02
     vertex -4.692917e-02 -2.463033e-02  3.000000e-02
     vertex -4.361814e-02 -3.010743e-02  3.000000e-02
   endloop
 endfacet
 facet normal  0.000000e+00  0.000000e+00  1.000000e+00
   outer loop
     vertex  3.967107e-02  3.514550e-02  3.000000e-02
     vertex -4.361814e-02 -3.010743e-02  3.000000e-02
     vertex -3.967107e-02 -3.514550e-02  3.000000e-02
   endloop
 endfacet
 facet normal  0.000000e+00  0.000000e+00  1.000000e+00
   outer loop
     vertex  3.967107e-02  3.514550e-02  3.000000e-02
     vertex -3.967107e-02 -3.514550e-02  3.000000e-02
     vertex -3.514550e-02 -3.967107e-02  3.000000e-02
   endloop
 endfacet
 facet normal  0.000000e+00  0.000000e+00  1.000000e+00
   outer loop
     vertex  3.967107e-02  3.514550e-02  3.000000e-02
     vertex -3.514550e-02 -3.967107e-02  3.000000e-02
     vertex -3.010743e-02 -4.361814e-02  3.000000e-02
   endloop
 endfacet
 facet normal  0.000000e+00  0.000000e+00  1.000000e+00
   outer loop
     vertex  3.967107e-02  3.514550e-02  3.000000e-02
     vertex -3.010743e-02 -4.361814e-02  3.000000e-02
     vertex -2.463033e-02 -4.692917e-02  3.000000e-02
   endloop
 endfacet
 facet normal  0.000000e+00  0.000000e+00  1.000000e+00
   outer loop
     vertex  3.967107e-02  3.514550e-02  3.000000e-02
     vertex -2.463033e-02 -4.692917e-02  3.000000e-02
     vertex -1.879406e-02 -4.955586e-02  3.000000e-02
   endloop
 endfacet
 facet normal  0.000000e+00  0.000000e+00  1.000000e+00
   outer loop
     vertex  3.967107e-02  3.514550e-02  3.000000e-02
     vertex -1.879406e-02 -4.955586e-02  3.000000e-02
     vertex -1.268373e-02 -5.145992e-02  3.000000e-02
   endloop
 endfacet
 facet normal  0.000000e+00  0.000000e+00  1.000000e+00
   outer loop
     vertex  3.967107e-02  3.514550e-02  3.000000e-02
     vertex -1.268373e-02 -5.145992e-02  3.000000e-02
     vertex -6.388444e-03 -5.261357e-02  3.000000e-02
   endloop
 endfacet
 facet normal  0.000000e+00  0.000000e+00  1.000000e+00
   outer loop
     vertex  3.967107e-02  3.514550e-02  3.000000e-02
     vertex -6.388444e-03 -5.261357e-02  3.000000e-02
     vertex -5.680940e-17 -5.300000e-02  3.000000e-02
   endloop
 endfacet
 facet normal  0.000000e+00  0.000000e+00  1.000000e+00
   outer loop
     vertex  3.967107e-02  3.514550e-02  3.000000e-02
     vertex -5.680940e-17 -5.300000e-02  3.000000e-02
     vertex  6.388444e-03 -5.261357e-02  3.000000e-02
   endloop
 endfacet
 facet normal  0.000000e+00  0.000000e+00  1.000000e+00
   outer loop
     vertex  3.967107e-02  3.514550e-02  3.000000e-02
     vertex  6.388444e-03 -5.261357e-02  3.000000e-02
     vertex  1.268373e-02 -5.145992e-02  3.000000e-02
   endloop
 endfacet
 facet normal  0.000000e+00  0.000000e+00  1.000000e+00
   outer loop
     vertex  3.967107e-02  3.514550e-02  3.000000e-02
     vertex  1.268373e-02 -5.145992e-02  3.000000e-02
     vertex  1.879406e-02 -4.955586e-02  3.000000e-02
   endloop
 endfacet
 facet normal  0.000000e+00  0.000000e+00  1.000000e+00
   outer loop
     vertex  3.967107e-02  3.514550e-02  3.000000e-02
     vertex  1.879406e-02 -4.955586e-02  3.000000e-02
     vertex  2.463033e-02 -4.692917e-02  3.000000e-02
   endloop
 endfacet
 facet normal  0.000000e+00  0.000000e+00  1.000000e+00
   outer loop
     vertex  3.967107e-02  3.514550e-02  3.000000e-02
     vertex  2.463033e-02 -4.692917e-02  3.000000e-02
     vertex  3.010743e-02 -4.361814e-02  3.000000e-02
   endloop
 endfacet
 facet normal  0.000000e+00  0.000000e+00  1.000000e+00
   outer loop
     vertex  3.967107e-02  3.514550e-02  3.000000e-02
     vertex  3.010743e-02 -4.361814e-02  3.000000e-02
     vertex  3.514550e-02 -3.967107e-02  3.000000e-02
   endloop
 endfacet
 facet normal  0.000000e+00  0.000000e+00  1.000000e+00
   outer loop
     vertex  3.967107e-02  3.514550e-02  3.000000e-02
     vertex  3.514550e-02 -3.967107e-02  3.000000e-02
     vertex  3.967107e-02 -3.514550e-02  3.000000e-02
   endloop
 endfacet
 facet normal  0.000000e+00  0.000000e+00  1.000000e+00
   outer loop
     vertex  3.967107e-02  3.514550e-02  3.000000e-02
     vertex  3.967107e-02 -3.514550e-02  3.000000e-02
     vertex  4.361814e-02 -3.010743e-02  3.000000e-02
   endloop
 endfacet
 facet normal  0.000000e+00  0.000000e+00  1.000000e+00
   outer loop
     vertex  3.967107e-02  3.514550e-02  3.000000e-02
     vertex  4.361814e-02 -3.010743e-02  3.000000e-02
     vertex  4.692917e-02 -2.463033e-02  3.000000e-02
   endloop
 endfacet
 facet normal  0.000000e+00  0.000000e+00  1.000000e+00
   outer loop
     vertex  3.967107e-02  3.514550e-02  3.000000e-02
     vertex  4.692917e-02 -2.463033e-02  3.000000e-02
     vertex  4.955586e-02 -1.879406e-02  3.000000e-02
   endloop
 endfacet
 facet normal  0.000000e+00  0.000000e+00  1.000000e+00
   outer loop
     vertex  3.967107e-02  3.514550e-02  3.000000e-02
     vertex  4.955586e-02 -1.879406e-02  3.000000e-02
     vertex  5.145992e-02 -1.268373e-02  3.000000e-02
   endloop
 endfacet
 facet normal  0.000000e+00  0.000000e+00  1.000000e+00
   outer loop
     vertex  3.967107e-02  3.514550e-02  3.000000e-02
     vertex  5.145992e-02 -1.268373e-02  3.000000e-02
     vertex  5.261357e-02 -6.388444e-03  3.000000e-02
   endloop
 endfacet
 facet normal  0.000000e+00  0.000000e+00  1.000000e+00
   outer loop
     vertex  3.967107e-02  3.514550e-02  3.000000e-02
     vertex  5.261357e-02 -6.388444e-03  3.000000e-02
     vertex  5.300000e-02 -1.298126e-17  3.000000e-02
   endloop
 endfacet
 facet normal  0.000000e+00  0.000000e+00 -1.000000e+00
   outer loop
     vertex  3.967107e-02  3.514550e-02 -2.000000e-02
     vertex  5.261357e-02  6.388444e-03 -2.000000e-02
     vertex  5.300000e-02 -1.298126e-17 -2.000000e-02
   endloop
 endfacet
 facet normal  0.000000e+00  0.000000e+00 -1.000000e+00
   outer loop
     vertex  3.967107e-02  3.514550e-02 -2.000000e-02
     vertex  5.145992e-02  1.268373e-02 -2.000000e-02
     vertex  5.261357e-02  6.388444e-03 -2.000000e-02
   endloop
 endfacet
 facet normal  0.000000e+00  0.000000e+00 -1.000000e+00
   outer loop
     vertex  3.967107e-02  3.514550e-02 -2.000000e-02
     vertex  4.955586e-02  1.879406e-02 -2.000000e-02
     vertex  5.145992e-02  1.268373e-02 -2.000000e-02
   endloop
 endfacet
 facet normal  0.000000e+00  0.000000e+00 -1.000000e+00
   outer loop
     vertex  3.967107e-02  3.514550e-02 -2.000000e-02
     vertex  4.692917e-02  2.463033e-02 -2.000000e-02
     vertex  4.955586e-02  1.879406e-02 -2.000000e-02
   endloop
 endfacet
 facet normal  0.000000e+00  0.000000e+00 -1.000000e+00
   outer loop
     vertex  3.967107e-02  3.514550e-02 -2.000000e-02
     vertex  4.361814e-02  3.010743e-02 -2.000000e-02
     vertex  4.692917e-02  2.463033e-02 -2.000000e-02
   endloop
 endfacet
 facet normal  0.000000e+00  0.000000e+00 -1.000000e+00
   outer loop
     vertex  3.967107e-02  3.514550e-02 -2.000000e-02
     vertex  3.010743e-02  4.361814e-02 -2.000000e-02
     vertex  3.514550e-02  3.967107e-02 -2.000000e-02
   endloop
 endfacet
 facet normal  0.000000e+00  0.000000e+00 -1.000000e+00
   outer loop
     vertex  3.967107e-02  3.514550e-02 -2.000000e-02
     vertex  2.463033e-02  4.692917e-02 -2.000000e-02
     vertex  3.010743e-02  4.361814e-02 -2.000000e-02
   endloop
 endfacet
 facet normal  0.000000e+00  0.000000e+00 -1.000000e+00
   outer loop
     vertex  3.967107e-02  3.514550e-02 -2.000000e-02
     vertex  1.879406e-02  4.955586e-02 -2.000000e-02
     vertex  2.463033e-02  4.692917e-02 -2.000000e-02
   endloop
 endfacet
 facet normal  0.000000e+00  0.000000e+00 -1.000000e+00
   outer loop
     vertex  3.967107e-02  3.514550e-02 -2.000000e-02
     vertex  1.268373e-02  5.145992e-02 -2.000000e-02
     vertex  1.879406e-02  4.955586e-02 -2.000000e-02
   endloop
 endfacet
 facet normal  0.000000e+00  0.000000e+00 -1.000000e+00
   outer loop
     vertex  3.967107e-02  3.514550e-02 -2.000000e-02
     vertex  6.388444e-03  5.261357e-02 -2.000000e-02
     vertex  1.268373e-02  5.145992e-02 -2.000000e-02
   endloop
 endfacet
 facet normal  0.000000e+00  0.000000e+00 -1.000000e+00
   outer loop
     vertex  3.967107e-02  3.514550e-02 -2.000000e-02
     vertex  2.678204e-17  5.300000e-02 -2.000000e-02
     vertex  6.388444e-03  5.261357e-02 -2.000000e-02
   endloop
 endfacet
 facet normal  0.000000e+00  0.000000e+00 -1.000000e+00
   outer loop
     vertex  3.967107e-02  3.514550e-02 -2.000000e-02
     vertex -6.388444e-03  5.261357e-02 -2.000000e-02
     vertex  2.678204e-17  5.300000e-02 -2.000000e-02
   endloop
 endfacet
 facet normal  0.000000e+00  0.000000e+00 -1.000000e+00
   outer loop
     vertex  3.967107e-02  3.514550e-02 -2.000000e-02
     vertex -1.268373e-02  5.145992e-02 -2.000000e-02
     vertex -6.388444e-03  5.261357e-02 -2.000000e-02
   endloop
 endfacet
 facet normal  0.000000e+00  0.000000e+00 -1.000000e+00
   outer loop
     vertex  3.967107e-02  3.514550e-02 -2.000000e-02
     vertex -1.879406e-02  4.955586e-02 -2.000000e-02
     vertex -1.268373e-02  5.145992e-02 -2.000000e-02
   endloop
 endfacet
 facet normal  0.000000e+00  0.000000e+00 -1.000000e+00
   outer loop
     vertex  3.967107e-02  3.514550e-02 -2.000000e-02
     vertex -2.463033e-02  4.692917e-02 -2.000000e-02
     vertex -1.879406e-02  4.955586e-02 -2.000000e-02
   endloop
 endfacet
 facet normal  0.000000e+00  0.000000e+00 -1.000000e+00
   outer loop
     vertex  3.967107e-02  3.514550e-02 -2.000000e-02
     vertex -3.010743e-02  4.361814e-02 -2.000000e-02
     vertex -2.463033e-02  4.692917e-02 -2.000000e-02
   endloop
 endfacet
 facet normal  0.000000e+00  0.000000e+00 -1.000000e+00
   outer loop
     vertex  3.967107e-02  3.514550e-02 -2.000000e-02
     vertex -3.514550e-02  3.967107e-02 -2.000000e-02
     vertex -3.010743e-02  4.361814e-02 -2.000000e-02
   endloop
 endfacet
 facet normal  0.000000e+00  0.000000e+00 -1.000000e+00
   outer loop
     vertex  3.967107e-02  3.514550e-02 -2.000000e-02
     vertex -3.967107e-02  3.514550e-02 -2.000000e-02
     vertex -3.514550e-02  3.967107e-02 -2.000000e-02
   endloop
 endfacet
 facet normal -0.000000e+00  0.000000e+00 -1.000000e+00
   outer loop
     vertex  3.967107e-02  3.514550e-02 -2.000000e-02
     vertex -4.361814e-02  3.010743e-02 -2.000000e-02
     vertex -3.967107e-02  3.514550e-02 -2.000000e-02
   endloop
 endfacet
 facet normal  0.000000e+00  0.000000e+00 -1.000000e+00
   outer loop
     vertex  3.967107e-02  3.514550e-02 -2.000000e-02
     vertex -4.692917e-02  2.463033e-02 -2.000000e-02
     vertex -4.361814e-02  3.010743e-02 -2.000000e-02
   endloop
 endfacet
 facet normal  0.000000e+00  0.000000e+00 -1.000000e+00
   outer loop
     vertex  3.967107e-02  3.514550e-02 -2.000000e-02
     vertex -4.955586e-02  1.879406e-02 -2.000000e-02
     vertex -4.692917e-02  2.463033e-02 -2.000000e-02
   endloop
 endfacet
 facet normal  0.000000e+00  0.000000e+00 -1.000000e+00
   outer loop
     vertex  3.967107e-02  3.514550e-02 -2.000000e-02
     vertex -5.145992e-02  1.268373e-02 -2.000000e-02
     vertex -4.955586e-02  1.879406e-02 -2.000000e-02
   endloop
 endfacet
 facet normal  0.000000e+00  0.000000e+00 -1.000000e+00
   outer loop
     vertex  3.967107e-02  3.514550e-02 -2.000000e-02
     vertex -5.261357e-02  6.388444e-03 -2.000000e-02
     vertex -5.145992e-02  1.268373e-02 -2.000000e-02
   endloop
 endfacet
 facet normal  0.000000e+00  0.000000e+00 -1.000000e+00
   outer loop
     vertex  3.967107e-02  3.514550e-02 -2.000000e-02
     vertex -5.300000e-02  1.006375e-16 -2.000000e-02
     vertex -5.261357e-02  6.388444e-03 -2.000000e-02
   endloop
 endfacet
 facet normal  0.000000e+00  0.000000e+00 -1.000000e+00
   outer loop
     vertex  3.967107e-02  3.514550e-02 -2.000000e-02
     vertex -5.261357e-02 -6.388444e-03 -2.000000e-02
     vertex -5.300000e-02  1.006375e-16 -2.000000e-02
   endloop
 endfacet
 facet normal  0.000000e+00  0.000000e+00 -1.000000e+00
   outer loop
     vertex  3.967107e-02  3.514550e-02 -2.000000e-02
     vertex -5.145992e-02 -1.268373e-02 -2.000000e-02
     vertex -5.261357e-02 -6.388444e-03 -2.000000e-02
   endloop
 endfacet
 facet normal  0.000000e+00  0.000000e+00 -1.000000e+00
   outer loop
     vertex  3.967107e-02  3.514550e-02 -2.000000e-02
     vertex -4.955586e-02 -1.879406e-02 -2.000000e-02
     vertex -5.145992e-02 -1.268373e-02 -2.000000e-02
   endloop
 endfacet
 facet normal  0.000000e+00  0.000000e+00 -1.000000e+00
   outer loop
     vertex  3.967107e-02  3.514550e-02 -2.000000e-02
     vertex -4.692917e-02 -2.463033e-02 -2.000000e-02
     vertex -4.955586e-02 -1.879406e-02 -2.000000e-02
   endloop
 endfacet
 facet normal  0.000000e+00  0.000000e+00 -1.000000e+00
   outer loop
     vertex  3.967107e-02  3.514550e-02 -2.000000e-02
     vertex -4.361814e-02 -3.010743e-02 -2.000000e-02
     vertex -4.692917e-02 -2.463033e-02 -2.000000e-02
   endloop
 endfacet
 facet normal  0.000000e+00  0.000000e+00 -1.000000e+00
   outer loop
     vertex  3.967107e-02  3.514550e-02 -2.000000e-02
     vertex -3.967107e-02 -3.514550e-02 -2.000000e-02
     vertex -4.361814e-02 -3.010743e-02 -2.000000e-02
   endloop
 endfacet
 facet normal  0.000000e+00  0.000000e+00 -1.000000e+00
   outer loop
     vertex  3.967107e-02  3.514550e-02 -2.000000e-02
     vertex -3.514550e-02 -3.967107e-02 -2.000000e-02
     vertex -3.967107e-02 -3.514550e-02 -2.000000e-02
   endloop
 endfacet
 facet normal  0.000000e+00  0.000000e+00 -1.000000e+00
   outer loop
     vertex  3.967107e-02  3.514550e-02 -2.000000e-02
     vertex -3.010743e-02 -4.361814e-02 -2.000000e-02
     vertex -3.514550e-02 -3.967107e-02 -2.000000e-02
   endloop
 endfacet
 facet normal  0.000000e+00  0.000000e+00 -1.000000e+00
   outer loop
     vertex  3.967107e-02  3.514550e-02 -2.000000e-02
     vertex -2.463033e-02 -4.692917e-02 -2.000000e-02
     vertex -3.010743e-02 -4.361814e-02 -2.000000e-02
   endloop
 endfacet
 facet normal  0.000000e+00  0.000000e+00 -1.000000e+00
   outer loop
     vertex  3.967107e-02  3.514550e-02 -2.000000e-02
     vertex -1.879406e-02 -4.955586e-02 -2.000000e-02
     vertex -2.463033e-02 -4.692917e-02 -2.000000e-02
   endloop
 endfacet
 facet normal  0.000000e+00  0.000000e+00 -1.000000e+00
   outer loop
     vertex  3.967107e-02  3.514550e-02 -2.000000e-02
     vertex -1.268373e-02 -5.145992e-02 -2.000000e-02
     vertex -1.879406e-02 -4.955586e-02 -2.000000e-02
   endloop
 endfacet
 facet normal  0.000000e+00  0.000000e+00 -1.000000e+00
   outer loop
     vertex  3.967107e-02  3.514550e-02 -2.000000e-02
     vertex -6.388444e-03 -5.261357e-02 -2.000000e-02
     vertex -1.268373e-02 -5.145992e-02 -2.000000e-02
   endloop
 endfacet
 facet normal  0.000000e+00  0.000000e+00 -1.000000e+00
   outer loop
     vertex  3.967107e-02  3.514550e-02 -2.000000e-02
     vertex -5.680940e-17 -5.300000e-02 -2.000000e-02
     vertex -6.388444e-03 -5.261357e-02 -2.000000e-02
   endloop
 endfacet
 facet normal  0.000000e+00  0.000000e+00 -1.000000e+00
   outer loop
     vertex  3.967107e-02  3.514550e-02 -2.000000e-02
     vertex  6.388444e-03 -5.261357e-02 -2.000000e-02
     vertex -5.680940e-17 -5.300000e-02 -2.000000e-02
   endloop
 endfacet
 facet normal  0.000000e+00  0.000000e+00 -1.000000e+00
   outer loop
     vertex  3.967107e-02  3.514550e-02 -2.000000e-02
     vertex  1.268373e-02 -5.145992e-02 -2.000000e-02
     vertex  6.388444e-03 -5.261357e-02 -2.000000e-02
   endloop
 endfacet
 facet normal  0.000000e+00  0.000000e+00 -1.000000e+00
   outer loop
     vertex  3.967107e-02  3.514550e-02 -2.000000e-02
     vertex  1.879406e-02 -4.955586e-02 -2.000000e-02
     vertex  1.268373e-02 -5.145992e-02 -2.000000e-02
   endloop
 endfacet
 facet normal  0.000000e+00  0.000000e+00 -1.000000e+00
   outer loop
     vertex  3.967107e-02  3.514550e-02 -2.000000e-02
     vertex  2.463033e-02 -4.692917e-02 -2.000000e-02
     vertex  1.879406e-02 -4.955586e-02 -2.000000e-02
   endloop
 endfacet
 facet normal  0.000000e+00  0.000000e+00 -1.000000e+00
   outer loop
     vertex  3.967107e-02  3.514550e-02 -2.000000e-02
     vertex  3.010743e-02 -4.361814e-02 -2.000000e-02
     vertex  2.463033e-02 -4.692917e-02 -2.000000e-02
   endloop
 endfacet
 facet normal  0.000000e+00  0.000000e+00 -1.000000e+00
   outer loop
     vertex  3.967107e-02  3.514550e-02 -2.000000e-02
     vertex  3.514550e-02 -3.967107e-02 -2.000000e-02
     vertex  3.010743e-02 -4.361814e-02 -2.000000e-02
   endloop
 endfacet
 facet normal  0.000000e+00 -0.000000e+00 -1.000000e+00
   outer loop
     vertex  3.967107e-02  3.514550e-02 -2.000000e-02
     vertex  3.967107e-02 -3.514550e-02 -2.000000e-02
     vertex  3.514550e-02 -3.967107e-02 -2.000000e-02
   endloop
 endfacet
 facet normal  0.000000e+00  0.000000e+00 -1.000000e+00
   outer loop
     vertex  3.967107e-02  3.514550e-02 -2.000000e-02
     vertex  4.361814e-02 -3.010743e-02 -2.000000e-02
     vertex  3.967107e-02 -3.514550e-02 -2.000000e-02
   endloop
 endfacet
 facet normal  0.000000e+00  0.000000e+00 -1.000000e+00
   outer loop
     vertex  3.967107e-02  3.514550e-02 -2.000000e-02
     vertex  4.692917e-02 -2.463033e-02 -2.000000e-02
     vertex  4.361814e-02 -3.010743e-02 -2.000000e-02
   endloop
 endfacet
 facet normal  0.000000e+00  0.000000e+00 -1.000000e+00
   outer loop
     vertex  3.967107e-02  3.514550e-02 -2.000000e-02
     vertex  4.955586e-02 -1.879406e-02 -2.000000e-02
     vertex  4.692917e-02 -2.463033e-02 -2.000000e-02
   endloop
 endfacet
 facet normal  0.000000e+00  0.000000e+00 -1.000000e+00
   outer loop
     vertex  3.967107e-02  3.514550e-02 -2.000000e-02
     vertex  5.145992e-02 -1.268373e-02 -2.000000e-02
     vertex  4.955586e-02 -1.879406e-02 -2.000000e-02
   endloop
 endfacet
 facet normal  0.000000e+00  0.000000e+00 -1.000000e+00
   outer loop
     vertex  3.967107e-02  3.514550e-02 -2.000000e-02
     vertex  5.261357e-02 -6.388444e-03 -2.000000e-02
     vertex  5.145992e-02 -1.268373e-02 -2.000000e-02
   endloop
 endfacet
 facet normal  0.000000e+00  0.000000e+00 -1.000000e+00
   outer loop
     vertex  3.967107e-02  3.514550e-02 -2.000000e-02
     vertex  5.300000e-02 -1.298126e-17 -2.000000e-02
     vertex  5.261357e-02 -6.388444e-03 -2.000000e-02
   endloop
 endfacet
endsolid
